<svg xmlns="http://www.w3.org/2000/svg" viewBox="0 0 750 750" role="img" aria-label="Check LicGeo — mapa do Brasil com lupa">
<path fill="currentColor" fill-rule="evenodd" d="M388.5 742.0L394.0 739.1L400.4 732.0L409.0 714.0L431.0 695.8L438.1 686.0L451.6 660.0L458.0 652.6L466.4 647.0L473.5 630.0L470.9 607.0L472.2 598.0L475.6 593.0L475.0 586.6L482.0 586.3L486.0 578.8L507.0 564.7L519.0 559.8L527.0 560.5L529.0 556.6L537.0 552.6L542.0 552.6L543.0 546.7L554.0 545.6L558.0 547.4L587.0 547.3L590.6 538.0L606.8 530.0L608.8 517.0L618.7 501.0L623.4 498.0L627.0 490.0L633.6 484.0L636.5 462.0L645.5 451.0L646.8 437.0L653.4 417.0L652.1 395.0L654.6 383.0L653.5 373.0L659.0 359.1L666.0 362.9L667.9 362.0L679.4 348.0L691.4 327.0L705.0 318.9L728.0 294.0L737.2 269.0L737.5 253.0L731.4 225.0L727.7 218.0L720.0 214.7L705.0 213.9L696.0 209.8L668.0 183.8L645.0 168.4L635.0 166.6L618.0 168.3L609.0 164.6L599.0 164.0L582.0 156.5L569.0 160.8L558.0 168.1L563.4 156.0L560.3 148.0L555.0 142.0L550.0 138.6L544.0 139.8L527.0 130.0L509.0 122.8L501.0 121.6L490.1 125.0L486.0 135.0L475.0 143.2L472.0 143.3L483.4 130.0L487.4 115.0L472.0 111.5L466.0 113.1L452.3 110.0L451.5 100.0L458.1 90.0L460.0 81.0L456.0 75.6L449.0 74.3L446.5 72.0L439.7 55.0L436.5 35.0L432.0 29.6L426.2 29.0L411.7 48.0L405.3 63.0L400.0 66.1L385.0 63.9L377.0 67.4L362.0 59.8L344.0 60.9L339.9 66.0L342.0 72.5L318.0 70.0L312.0 75.4L297.0 78.6L293.0 83.7L288.0 84.5L276.0 76.7L273.4 73.0L273.0 67.1L269.6 63.0L269.6 52.0L276.4 35.0L272.3 26.0L266.9 24.0L268.4 16.0L264.0 11.3L254.0 10.6L252.3 12.0L253.5 18.0L247.0 24.3L239.0 25.5L231.0 31.4L221.0 31.4L215.0 33.5L212.0 42.5L204.0 35.6L199.0 37.3L192.0 36.9L187.0 32.8L178.0 30.9L176.3 32.0L176.7 37.0L185.6 45.0L186.0 54.0L189.7 61.0L190.0 65.7L201.3 68.0L189.0 74.9L186.0 82.2L174.0 86.8L165.0 94.6L160.0 91.7L152.0 96.9L147.0 96.3L139.0 89.5L134.6 88.0L134.1 79.0L127.0 71.4L123.0 72.8L118.0 78.8L112.0 75.1L109.0 79.4L85.0 80.5L80.0 82.4L79.4 95.0L91.0 96.4L92.6 101.0L87.0 99.9L77.0 103.6L75.9 106.0L76.2 119.0L84.2 125.0L89.1 138.0L79.3 195.0L77.0 195.5L73.0 192.5L66.0 193.0L62.0 197.3L42.0 202.9L27.0 213.9L21.3 232.0L22.2 241.0L12.3 248.0L11.6 257.0L8.0 261.0L12.9 271.0L27.5 289.0L24.9 296.0L26.0 297.3L40.0 298.6L46.0 307.5L62.0 306.5L72.8 299.0L72.7 323.0L79.0 326.5L88.0 322.7L111.0 325.2L118.0 322.1L122.0 316.5L128.0 316.1L146.0 301.3L169.0 296.6L168.4 322.0L176.2 336.0L191.0 347.2L204.0 347.4L208.0 350.6L213.0 350.7L220.0 356.2L229.0 358.3L236.0 364.7L250.0 364.7L260.7 370.0L260.5 377.0L264.3 390.0L259.4 393.0L265.0 400.4L267.2 415.0L299.0 415.7L297.3 421.0L298.8 433.0L310.5 439.0L313.8 448.0L303.0 459.3L296.0 459.9L291.0 462.5L116.0 634.4L162.0 679.1L318.0 527.4L330.0 528.1L337.0 524.9L341.0 528.0L346.0 528.4L349.4 535.0L351.7 553.0L354.3 558.0L360.0 560.2L368.0 557.0L372.3 560.0L371.8 570.0L367.4 587.0L371.0 589.5L379.3 591.0L383.1 601.0L382.7 613.0L379.0 617.2L364.0 624.6L346.0 640.7L318.4 676.0L320.0 677.6L326.0 677.5L332.0 674.9L344.6 686.0L345.7 692.0L350.0 692.2L354.0 688.7L358.0 695.3L368.0 699.0L372.0 705.1L381.0 709.7L384.0 716.6L390.0 721.0L384.5 729.0L384.6 739.0L388.5 742.0Z M235.0 135.2L223.4 126.0L224.2 120.0L219.6 110.0L221.2 94.0L215.9 80.0L216.7 74.0L205.0 68.5L203.0 63.9L193.0 63.3L188.7 53.0L188.3 44.0L179.4 35.0L187.0 35.8L192.0 40.1L203.0 38.6L210.0 44.9L213.0 45.3L215.5 43.0L217.0 36.3L222.0 34.1L228.0 35.2L240.0 28.7L247.8 27.0L255.6 20.0L256.6 14.0L263.0 13.9L265.6 17.0L263.7 26.0L269.6 28.0L273.5 36.0L266.6 52.0L266.8 63.0L274.0 78.9L285.5 87.0L287.0 103.0L266.0 104.5L261.7 110.0L258.7 117.0L259.7 121.0L257.0 123.5L254.0 123.4L246.0 117.5L239.0 120.7L236.6 124.0L235.0 135.2Z M422.0 129.5L415.0 129.3L410.3 124.0L407.5 116.0L401.5 109.0L398.4 95.0L392.7 90.0L391.8 85.0L382.0 80.4L377.0 75.3L368.0 73.5L367.7 68.0L369.0 66.5L379.0 70.1L385.0 66.6L400.0 68.9L406.0 66.1L414.5 49.0L429.0 31.3L433.9 36.0L435.9 52.0L444.9 75.0L455.0 78.3L457.4 83.0L451.4 95.0L444.4 99.0L442.0 105.1L435.0 107.6L431.5 112.0L423.6 123.0L422.0 129.5Z M306.0 247.6L299.0 238.9L298.5 235.0L337.4 151.0L310.2 136.0L299.0 128.3L292.6 121.0L289.7 114.0L287.6 88.0L295.0 86.2L298.0 81.5L313.0 78.3L318.0 73.2L344.0 75.2L345.7 73.0L342.7 66.0L344.0 64.1L362.0 62.7L366.3 66.0L366.8 76.0L375.0 76.7L381.0 82.4L390.0 86.3L391.4 92.0L396.3 96.0L399.5 110.0L405.5 117.0L408.7 126.0L414.0 131.2L424.0 131.3L425.6 124.0L433.4 113.0L437.1 109.0L443.3 107.0L448.0 99.6L451.0 113.2L484.4 117.0L481.3 128.0L476.0 136.0L469.8 140.0L468.4 144.0L470.0 146.1L476.0 146.2L488.0 137.2L490.4 134.0L490.5 129.0L495.0 125.6L508.0 125.5L528.0 134.1L527.1 148.0L522.0 158.6L486.0 152.4L455.0 152.4L420.0 158.5L383.0 172.9L365.0 183.5L344.0 199.6L322.4 223.0L306.0 247.6Z M144.0 296.3L108.0 283.3L78.0 268.8L34.0 260.4L14.3 253.0L15.0 249.4L25.2 242.0L23.9 233.0L30.0 215.4L44.1 205.0L62.0 200.5L67.0 195.6L72.0 195.3L77.0 198.4L81.8 197.0L92.2 139.0L86.4 123.0L79.3 118.0L79.1 107.0L87.0 103.1L94.0 104.2L95.5 102.0L94.4 96.0L92.0 93.6L82.4 93.0L83.0 84.2L111.0 82.4L113.0 78.4L119.0 82.0L126.0 74.4L132.0 81.2L132.0 91.1L137.0 91.7L147.0 99.6L154.0 99.3L160.0 94.7L163.0 100.4L175.0 89.5L182.0 85.7L186.0 86.2L190.2 82.0L192.0 76.0L205.0 70.7L214.5 75.0L213.9 81.0L218.7 94.0L217.5 111.0L221.9 120.0L220.6 125.0L232.0 136.2L237.4 137.0L238.9 124.0L245.0 119.7L253.0 125.5L260.5 124.0L261.5 116.0L267.0 106.4L286.0 106.1L290.6 122.0L297.6 130.0L312.0 139.7L320.0 142.6L330.0 151.2L334.0 151.2L296.6 234.0L296.6 239.0L301.8 246.0L298.0 254.5L298.5 263.0L295.0 271.6L237.0 272.1L233.0 274.9L217.0 260.8L204.0 260.1L194.0 268.1L194.6 273.0L191.0 277.7L180.0 278.8L175.0 286.6L171.0 285.4L163.0 289.6L151.0 288.5L144.0 296.3Z M554.0 171.3L524.4 159.0L529.0 149.0L528.4 144.0L531.0 135.5L543.0 142.7L549.0 141.4L557.3 149.0L560.0 156.0L554.8 166.0L554.0 171.3Z M587.0 191.5L557.2 172.0L572.0 162.7L579.0 161.6L581.0 159.4L597.0 166.4L609.5 168.0L609.0 170.5L602.0 177.2L595.0 179.1L587.0 191.5Z M625.0 232.1L612.6 216.0L589.1 193.0L596.0 180.9L604.0 178.4L613.0 169.3L618.7 172.0L615.9 177.0L621.9 195.0L619.7 202.0L624.3 219.0L625.0 232.1Z M660.0 262.5L647.0 253.5L638.0 253.4L634.3 247.0L634.5 243.0L628.7 237.0L626.1 217.0L621.7 201.0L623.9 194.0L618.0 177.0L623.0 170.8L638.0 169.7L645.0 171.5L667.0 186.8L686.0 205.8L691.0 208.4L682.8 215.0L674.2 230.0L670.0 230.8L667.7 234.0L664.6 246.0L666.4 257.0L660.0 262.5Z M337.0 284.5L329.0 282.8L317.5 274.0L323.7 260.0L332.7 245.0L347.7 226.0L365.0 209.8L384.0 196.6L413.0 182.8L444.0 174.8L476.0 172.8L510.4 178.0L509.8 183.0L499.0 195.3L468.0 194.0L443.0 196.7L416.0 204.8L392.0 216.8L374.0 229.7L358.8 246.0L347.7 262.0L337.0 284.5Z M528.0 302.3L522.4 300.0L518.3 293.0L520.4 289.0L514.8 285.0L514.0 280.1L510.7 279.0L514.8 271.0L520.1 268.0L522.3 261.0L519.0 257.7L510.5 259.0L503.3 250.0L503.0 246.8L499.9 245.0L502.6 242.0L506.0 219.1L526.0 224.9L532.2 222.0L535.2 216.0L534.4 211.0L531.0 206.6L501.6 197.0L512.4 183.0L513.0 178.5L542.0 188.7L566.0 202.6L584.0 217.2L583.8 225.0L588.3 232.0L588.2 236.0L585.0 239.1L569.0 237.8L553.0 249.3L539.0 254.6L528.9 278.0L531.3 289.0L528.0 302.3Z M705.0 249.1L700.0 244.8L694.0 245.4L690.5 243.0L694.9 234.0L694.0 231.2L686.0 232.3L681.0 237.2L677.0 238.5L669.9 236.0L671.0 233.0L676.2 231.0L684.8 216.0L689.0 211.9L693.0 211.1L703.0 216.4L721.0 217.8L726.0 220.2L728.5 225.0L731.5 242.0L709.0 238.0L705.0 249.1Z M449.0 292.5L358.8 286.0L367.6 269.0L379.8 253.0L393.0 240.7L408.3 231.0L426.0 222.7L446.0 216.8L469.0 214.2L488.0 215.5L484.0 227.6L478.1 234.0L469.6 239.0L466.4 250.0L469.2 256.0L468.6 261.0L462.1 274.0L452.7 283.0L449.0 292.5Z M494.0 359.0L487.0 354.3L477.0 355.9L474.4 349.0L471.0 346.6L463.0 356.1L452.0 352.4L450.4 351.0L451.7 342.0L450.0 340.4L443.0 347.3L441.5 325.0L444.6 308.0L454.7 284.0L463.4 276.0L470.8 261.0L471.4 256.0L468.4 251.0L471.1 241.0L486.2 229.0L492.0 215.8L503.1 219.0L503.1 230.0L500.6 241.0L497.3 246.0L500.7 248.0L501.1 251.0L509.0 261.0L518.0 259.8L519.9 262.0L518.7 266.0L512.8 270.0L508.5 281.0L512.0 282.1L512.5 286.0L517.0 289.5L515.2 293.0L521.0 302.0L530.3 306.0L522.1 312.0L516.5 323.0L518.0 326.8L523.6 329.0L521.5 333.0L522.7 335.0L519.9 339.0L522.0 349.9L515.0 351.5L511.0 354.8L500.0 357.2L497.0 355.0L494.0 359.0Z M550.0 314.0L544.0 314.4L537.0 305.0L530.6 303.0L533.2 290.0L531.2 278.0L542.0 254.7L555.0 250.7L570.0 239.7L579.0 241.7L588.8 239.0L590.5 232.0L585.6 224.0L587.0 220.1L607.2 244.0L622.3 272.0L606.0 285.6L591.0 291.3L587.0 291.2L583.0 288.3L574.0 287.4L569.1 289.0L569.8 297.0L567.5 305.0L561.0 310.5L557.0 309.7L550.0 314.0Z M699.0 273.5L695.4 273.0L692.7 268.0L696.4 259.0L692.0 254.8L679.0 262.4L668.0 261.2L668.9 255.0L666.7 246.0L670.0 238.9L678.0 240.3L686.0 234.6L692.0 233.3L687.7 244.0L693.0 247.5L699.0 246.6L703.0 251.5L707.3 250.0L710.0 240.4L732.5 245.0L735.0 261.2L726.0 260.1L723.8 261.0L723.0 264.2L716.0 266.4L707.0 266.4L699.0 273.5Z M704.0 293.1L693.0 292.0L681.0 284.1L673.0 289.4L668.0 283.0L665.0 283.5L653.0 276.6L648.0 277.4L638.9 256.0L647.0 255.9L659.0 264.7L665.0 261.6L667.2 264.0L673.0 265.5L680.0 264.4L692.0 257.3L693.8 260.0L689.6 269.0L693.1 274.0L697.0 275.9L701.0 275.0L708.0 268.4L724.0 266.4L727.0 262.1L734.0 264.0L734.4 268.0L728.0 287.7L718.0 285.4L704.0 293.1Z M80.0 323.4L75.4 319.0L75.2 293.0L62.0 303.3L48.0 304.6L42.0 296.4L30.0 294.7L30.2 288.0L11.5 263.0L15.0 256.8L33.0 262.3L77.0 270.7L142.5 300.0L126.0 313.6L120.0 313.7L113.0 321.3L89.0 319.6L80.0 323.4Z M257.0 364.3L251.0 362.2L237.0 361.9L231.0 355.5L220.0 353.3L214.0 347.5L209.0 347.9L205.0 344.6L191.0 344.3L179.0 334.9L171.7 323.0L172.7 315.0L171.1 309.0L172.7 303.0L171.0 294.1L146.5 297.0L152.0 290.6L163.0 292.1L172.0 287.7L175.0 289.1L181.0 281.3L192.0 279.8L196.7 274.0L196.0 269.4L204.0 262.3L216.0 262.7L232.0 277.3L237.0 274.6L240.1 277.0L238.6 281.0L241.4 316.0L260.0 316.5L268.0 318.7L269.3 321.0L266.8 329.0L271.2 338.0L271.5 343.0L262.0 360.8L257.0 364.3Z M320.0 442.1L315.0 441.3L312.0 436.5L301.2 431.0L300.3 422.0L302.0 413.9L269.4 412.0L267.5 399.0L264.5 395.0L267.3 392.0L266.4 383.0L263.1 376.0L264.2 370.0L259.0 366.0L264.0 362.0L273.3 344.0L273.5 338.0L268.7 329.0L271.6 322.0L269.0 316.5L242.9 314.0L240.9 281.0L243.0 274.7L294.3 274.0L288.6 293.0L284.7 317.0L283.9 335.0L285.5 356.0L288.6 373.0L296.8 399.0L305.7 418.0L320.0 442.1Z M629.0 292.8L624.4 282.0L619.5 277.0L623.0 274.4L629.0 292.8Z M393.0 445.1L382.0 444.0L386.7 437.0L386.0 431.4L376.0 437.9L368.0 435.7L360.0 438.6L343.0 429.7L339.0 429.9L319.7 398.0L309.8 369.0L305.7 338.0L307.8 307.0L311.6 290.0L317.0 276.6L327.0 284.2L335.9 288.0L329.8 315.0L329.2 346.0L335.6 381.0L338.0 384.8L343.0 387.6L351.0 386.3L355.6 380.0L350.5 351.0L349.6 328.0L352.8 304.0L358.0 288.6L448.3 295.0L442.5 308.0L439.2 326.0L440.6 347.0L443.1 351.0L437.6 365.0L432.2 388.0L423.0 393.0L418.3 403.0L410.0 407.5L406.6 411.0L403.0 419.9L397.0 424.0L393.7 431.0L392.8 439.0L394.4 444.0L393.0 445.1Z M614.0 410.5L610.4 409.0L604.0 399.9L586.0 393.4L580.0 386.8L575.0 386.5L571.0 389.2L566.0 387.4L566.1 382.0L561.0 378.6L553.0 379.9L533.0 390.6L530.0 394.2L526.6 394.0L527.5 381.0L522.2 372.0L525.5 360.0L522.3 339.0L525.5 335.0L524.4 333.0L526.2 329.0L518.5 324.0L524.0 313.0L535.0 306.5L542.0 315.6L550.0 316.4L557.0 311.8L562.0 312.3L569.0 306.6L572.0 297.0L570.6 291.0L573.0 289.5L592.0 293.1L608.0 287.0L617.0 278.5L622.0 282.0L625.8 294.0L630.4 296.0L632.4 305.0L634.9 330.0L634.4 347.0L627.2 382.0L614.0 410.5Z M654.0 364.7L656.4 325.0L654.1 304.0L648.5 281.0L650.0 278.5L667.0 286.0L670.0 289.0L671.5 295.0L674.5 297.0L678.4 311.0L676.4 319.0L671.0 318.8L669.4 323.0L675.0 335.7L682.3 337.0L667.0 359.1L659.0 355.3L655.7 359.0L654.0 364.7Z M704.0 315.2L691.0 303.3L678.0 297.5L672.8 292.0L681.0 286.5L693.0 294.6L703.0 295.5L718.0 287.6L726.0 290.0L722.0 296.8L704.0 315.2Z M684.0 334.2L676.4 334.0L671.3 322.0L673.0 320.6L677.0 321.5L679.1 317.0L680.8 309.0L677.0 299.9L689.0 304.6L701.6 317.0L690.0 324.1L684.0 334.2Z M435.0 471.5L421.0 466.5L408.0 459.1L401.0 458.8L401.4 453.0L397.6 450.0L398.0 446.0L394.7 437.0L398.6 425.0L405.4 420.0L408.4 412.0L419.0 405.4L424.0 394.8L433.2 390.0L439.4 366.0L448.0 344.4L449.8 344.0L449.2 353.0L462.0 357.9L465.0 357.6L471.0 349.0L474.2 353.0L476.0 360.5L479.0 357.8L486.0 357.2L496.0 361.5L498.0 358.7L511.0 357.3L516.0 353.4L522.0 353.0L523.3 361.0L520.7 366.0L520.5 374.0L525.4 381.0L525.0 388.8L522.0 390.4L517.0 386.6L514.6 387.0L513.8 391.0L507.6 395.0L508.7 407.0L502.0 410.2L502.4 401.0L501.0 399.4L485.0 399.4L483.7 401.0L484.0 412.3L499.7 413.0L497.6 422.0L502.0 429.0L495.4 437.0L499.1 441.0L498.0 448.9L488.0 455.3L473.0 453.4L462.0 457.7L459.0 456.7L447.0 458.7L435.0 471.5Z M635.0 458.6L627.3 454.0L627.5 450.0L620.9 440.0L627.0 433.8L627.7 430.0L635.5 420.0L651.0 378.5L649.5 394.0L650.5 417.0L643.5 439.0L642.8 450.0L635.0 458.6Z M504.0 490.2L500.0 490.5L495.0 485.1L466.0 489.2L463.0 483.6L443.0 479.8L435.0 482.7L433.5 480.0L434.7 475.0L442.6 468.0L447.0 460.8L459.0 459.0L462.0 460.2L473.0 455.5L489.0 457.1L500.1 450.0L501.3 440.0L497.6 437.0L503.9 429.0L499.7 420.0L502.3 413.0L510.4 409.0L509.8 395.0L515.7 393.0L516.0 389.7L523.0 392.3L525.0 396.8L530.0 396.4L554.0 381.7L561.0 381.0L564.2 383.0L564.2 389.0L571.0 391.5L575.0 388.8L579.0 388.8L585.0 395.2L601.9 401.0L609.0 410.7L612.8 413.0L592.3 441.0L568.0 462.3L536.6 480.0L504.0 490.2Z M499.0 410.5L486.0 410.5L485.9 402.0L500.0 401.9L499.0 410.5Z M431.0 488.4L409.0 482.1L383.0 469.3L361.0 453.2L340.9 432.0L360.0 440.7L369.0 437.5L378.0 439.4L384.0 434.3L384.5 437.0L379.2 444.0L380.0 445.5L395.0 446.8L396.3 452.0L399.6 455.0L399.1 460.0L407.0 460.7L432.0 473.0L432.6 487.0L431.0 488.4Z M521.0 539.4L514.0 539.3L512.4 534.0L508.7 530.0L512.2 515.0L508.7 511.0L535.0 503.4L569.0 487.2L595.0 468.1L619.0 442.9L625.5 452.0L617.0 451.7L608.7 457.0L610.6 467.0L606.9 469.0L610.3 474.0L610.4 479.0L602.0 491.9L593.8 496.0L592.2 504.0L587.5 508.0L581.9 522.0L570.0 527.4L559.0 525.9L532.0 534.3L524.0 534.9L521.0 539.4Z M377.0 558.2L369.0 554.3L361.0 557.3L356.3 556.0L351.8 534.0L348.0 526.2L342.0 525.4L337.0 521.6L330.0 525.3L321.9 524.0L338.6 507.0L340.5 497.0L353.5 484.0L329.3 462.0L315.8 446.0L316.0 444.0L322.7 444.0L346.0 468.3L372.0 487.2L391.0 497.3L415.7 507.0L415.5 510.0L406.0 524.0L386.6 538.0L383.3 545.0L379.6 548.0L377.0 558.2Z M607.0 513.5L600.0 512.4L596.2 509.0L594.6 504.0L595.8 497.0L604.1 493.0L612.3 480.0L611.1 471.0L613.1 468.0L611.2 458.0L621.0 453.0L633.6 461.0L631.4 482.0L624.7 488.0L621.1 496.0L616.7 499.0L607.0 513.5Z M483.0 493.1L448.0 492.2L435.0 489.9L434.6 486.0L443.0 482.2L461.0 485.6L464.0 491.1L469.0 492.4L472.0 489.6L491.0 487.1L494.0 487.1L497.5 491.0L483.0 493.1Z M481.0 581.2L474.8 578.0L473.0 572.8L462.0 571.0L462.4 566.0L457.1 557.0L455.7 545.0L450.0 538.3L437.0 537.9L427.0 533.1L422.0 533.4L414.0 530.6L408.0 531.9L401.0 530.7L413.2 518.0L418.0 507.5L455.0 514.2L507.0 512.9L509.6 515.0L506.5 530.0L512.3 541.0L522.0 541.5L525.0 537.5L539.0 533.9L542.0 536.5L549.0 538.0L538.0 542.4L536.2 545.0L537.0 549.9L527.0 554.3L525.0 557.3L516.0 557.7L503.0 563.7L484.0 576.7L481.0 581.2Z M539.0 546.0L541.0 542.9L551.2 540.0L550.4 536.0L543.0 534.6L543.1 533.0L558.0 528.4L570.0 529.6L583.0 524.1L588.9 510.0L592.0 507.6L597.0 513.1L606.1 516.0L604.0 528.6L589.0 535.6L585.0 544.6L559.0 544.6L554.0 542.8L550.0 544.3L543.0 543.6L539.0 546.0Z M424.0 607.5L391.0 599.5L387.0 600.3L380.5 588.0L370.6 586.0L375.4 561.0L379.5 559.0L381.5 549.0L384.7 547.0L388.4 539.0L397.0 533.0L414.0 532.7L427.0 535.5L436.0 540.3L449.0 540.2L453.8 546.0L454.8 558.0L460.2 566.0L459.8 572.0L471.0 574.4L473.0 579.8L477.0 580.6L478.4 583.0L473.0 584.2L471.3 589.0L472.4 593.0L469.0 596.1L461.0 596.7L455.0 600.2L448.0 596.9L437.0 596.6L427.5 602.0L424.0 607.5Z M450.0 657.2L445.9 655.0L451.2 645.0L450.5 643.0L437.0 640.2L424.0 625.9L408.0 618.9L390.0 615.4L384.9 617.0L386.2 603.0L390.0 601.7L425.0 609.6L429.0 603.5L438.0 598.7L447.0 598.8L455.0 602.4L461.0 599.0L468.0 598.1L467.8 612.0L470.4 631.0L464.3 645.0L450.0 657.2Z M390.0 738.4L387.5 738.0L387.4 729.0L394.3 720.0L386.4 715.0L383.0 707.6L374.3 703.0L370.0 696.6L360.0 693.2L355.0 685.4L351.0 686.0L348.0 689.3L346.6 684.0L333.0 671.9L322.6 674.0L340.5 651.0L366.0 626.6L382.0 618.6L390.0 618.0L410.0 621.7L423.0 627.9L435.0 641.6L448.5 645.0L443.4 656.0L448.2 660.0L435.3 685.0L425.0 698.2L408.6 710.0L404.0 716.0L398.3 730.0L390.0 738.4Z M145.9 694.0L155.7 685.0L109.0 640.1L99.9 651.0L101.4 660.0L134.0 692.1L139.0 694.6L145.9 694.0Z"/>
</svg>